<svg width="24" height="24" viewBox="0 0 24 24" fill="none" xmlns="http://www.w3.org/2000/svg">
<path d="M19.9304 9.33015C19.9704 9.55015 20.0004 9.77015 20.0004 10.0001C20.0004 14.4201 16.4204 18.0001 12.0004 18.0001C9.93039 18.0001 8.08039 17.2201 6.72039 15.9701L6.00039 16.6901V13.0001H9.69039L8.38039 14.3101C9.42039 15.3501 10.6604 16.0001 12.0004 16.0001C15.3104 16.0001 18.0004 13.3101 18.0004 10.0001C18.0004 9.89015 17.9904 9.78015 17.9804 9.67015L19.9304 9.33015Z" fill="white"/>
<path d="M4.06995 14.67C4.02995 14.45 3.99995 14.23 3.99995 14C3.99995 9.58 7.57995 6 11.9999 6C14.0599 6 15.9199 6.78 17.2799 8.03L17.9999 7.31V11H14.2999L15.6099 9.69C14.5699 8.65 13.3299 8 11.9999 8C8.68995 8 5.99995 10.69 5.99995 14C5.99995 14.11 6.00995 14.22 6.01995 14.33L4.06995 14.67Z" fill="white"/>
</svg>